 <svg version="1.1" id="Layer_1" xmlns="http://www.w3.org/2000/svg" xmlns:xlink="http://www.w3.org/1999/xlink" x="0px" y="0px"
          viewBox="0 0 167.3 42" xml:space="preserve">
        <g>
          <path id="Fill-1-Copy-6" fill="#02B693" d="M44.1,28.7c0,1.7-0.5,3-1.5,4.1c-1.1,1.1-2.7,1.7-4.7,1.7H12.8c-2,0-3.5-0.6-4.7-1.7
            c-1-1-1.5-2.4-1.5-4.1l0-2c0-0.1,0-0.2,0-0.3v-4.2c0-1.1,0.9-2.1,2.1-2.1c1.1,0,2.1,0.9,2.1,2.1v4.2c0,0.1,0,0.2,0,0.2c0,0,0,0,0,0
            v1.8c0,1.5,0.8,2.3,2.3,2.3h7.4c1.1,0,2-0.9,2-2v-4.1c0-0.9,0.6-1.7,1.4-2l0.1,0c1.3-0.4,2.6,0.6,2.6,2v4.1c0,1.1,0.9,2,2,2h0.5
            c1.1,0,2-0.9,2-2v-5.3c0-0.9,0.6-1.7,1.4-1.9c1.3-0.4,2.7,0.6,2.7,1.9v5.3c0,1.1,0.9,2,2,2h0.4c1.5,0,2.3-0.8,2.3-2.3v-6.1
            c0-0.9,0.6-1.7,1.4-1.9l0,0c1.3-0.4,2.7,0.6,2.7,2L44.1,28.7z M28.5,12.9c3.4,0,3.4,5.3,0,5.3C25.1,18.2,25.1,12.9,28.5,12.9z
            M33.1,6.3c3.4,0,3.4,5.3,0,5.3C29.7,11.5,29.7,6.3,33.1,6.3z M37.9,12.9c3.4,0,3.4,5.3,0,5.3C34.5,18.2,34.5,12.9,37.9,12.9z
            M42.8,0H7.9C3.5,0,0,3.5,0,7.9v25c0,4.4,3.5,7.9,7.9,7.9h34.9c4.4,0,7.9-3.5,7.9-7.9v-25C50.7,3.5,47.2,0,42.8,0z"/>
          <path id="Combined-Shape" fill="#28464B" d="M61.6,29.4c0.7,0.5,1.5,0.8,2.5,1.1c1,0.3,2,0.5,3.1,0.5c1.6,0,2.8-0.4,3.7-1.1
            c0.9-0.7,1.3-1.7,1.3-2.9c0-1.1-0.3-2-1-2.7c-0.7-0.7-1.9-1.4-3.5-2c-2.1-0.7-3.7-1.7-4.9-2.8c-1.2-1.2-1.9-2.7-1.9-4.5
            c0-1,0.2-1.9,0.6-2.8c0.4-0.9,1-1.6,1.7-2.2c0.7-0.6,1.6-1.1,2.6-1.5C66.9,8.1,68,8,69.2,8c1.3,0,2.4,0.1,3.3,0.4
            c0.9,0.3,1.7,0.5,2.3,0.8L75,9.3l-1,3.1l-0.3-0.1c-0.4-0.2-1-0.5-1.8-0.7c-0.8-0.3-1.7-0.4-2.8-0.4c-0.8,0-1.5,0.1-2.1,0.3
            c-0.6,0.2-1,0.5-1.4,0.8c-0.3,0.3-0.6,0.7-0.8,1.1c-0.2,0.4-0.2,0.8-0.2,1.2c0,1.1,0.4,2,1.1,2.6c0.8,0.7,2,1.3,3.7,2
            c2.2,0.9,3.8,1.8,4.8,3c1.1,1.2,1.6,2.7,1.6,4.6c0,1-0.2,1.9-0.6,2.9c-0.4,0.9-0.9,1.7-1.7,2.4c-0.7,0.7-1.7,1.2-2.8,1.6
            c-1.1,0.4-2.4,0.6-3.9,0.6c-1.2,0-2.5-0.2-3.7-0.5c-1.2-0.3-2.2-0.7-2.9-1.2l-0.2-0.1l1-3.2L61.6,29.4z M85.6,15.9
            c0.5-0.3,1-0.5,1.6-0.7c0.6-0.2,1.2-0.3,1.8-0.3c0.6,0,1.3,0.1,2.1,0.3c0.8,0.2,1.5,0.6,2.1,1.2c0.7,0.6,1.2,1.4,1.6,2.4
            c0.4,1,0.6,2.3,0.6,3.9v10.9h-3.7V23.2c0-0.7-0.1-1.4-0.2-2c-0.1-0.6-0.4-1.1-0.7-1.6c-0.3-0.4-0.7-0.8-1.2-1.1
            c-0.5-0.3-1.1-0.4-1.8-0.4c-1,0-1.9,0.3-2.6,0.9c-0.7,0.6-1.2,1.3-1.5,2.2c-0.2,0.4-0.2,0.9-0.2,1.5v11.1h-3.7V7h3.7v10.7
            C84.1,16.9,84.8,16.3,85.6,15.9z M108.1,33.3c-1,0.6-2.1,0.8-3.5,0.8c-0.9,0-1.7-0.2-2.5-0.5c-0.7-0.3-1.3-0.7-1.8-1.2
            c-0.5-0.5-0.8-1.1-1.1-1.7c-0.2-0.6-0.4-1.3-0.4-2c0-2.3,1-4,2.9-5.2c1.9-1.1,4.5-1.7,7.9-1.7v-0.1c0-0.4,0-0.8-0.1-1.2
            c-0.1-0.4-0.3-0.9-0.5-1.2c-0.3-0.4-0.6-0.7-1.1-1c-0.5-0.3-1.2-0.4-2-0.4c-0.8,0-1.6,0.1-2.4,0.3c-0.8,0.2-1.5,0.5-2.1,0.9
            l-0.3,0.2l-1-2.7l0.2-0.1c0.8-0.5,1.7-0.9,2.8-1.2c1.1-0.3,2.2-0.4,3.3-0.4c1.4,0,2.6,0.2,3.5,0.7c0.9,0.4,1.6,1,2.2,1.8
            c0.5,0.7,0.9,1.5,1.1,2.4c0.2,0.9,0.3,1.8,0.3,2.7v6.7c0,0.8,0,1.5,0.1,2.3c0,0.7,0.1,1.4,0.2,2l0,0.3h-3.5l-0.3-1.9
            C109.5,32.4,108.9,32.9,108.1,33.3z M109.7,24.6c-0.8,0-1.6,0.1-2.4,0.1c-0.9,0.1-1.7,0.3-2.4,0.6c-0.7,0.3-1.2,0.7-1.7,1.2
            c-0.4,0.5-0.6,1.1-0.6,1.9c0,1,0.3,1.7,0.8,2.2c0.6,0.5,1.2,0.7,2,0.7c1.1,0,2-0.3,2.7-0.9c0.7-0.6,1.2-1.2,1.4-1.9
            c0-0.2,0.1-0.3,0.1-0.5c0-0.2,0-0.3,0-0.4V24.6z M123.9,15.9c0.5-0.3,1-0.5,1.6-0.7c0.6-0.2,1.2-0.3,1.8-0.3c0.6,0,1.3,0.1,2.1,0.3
            c0.8,0.2,1.5,0.6,2.1,1.2c0.7,0.6,1.2,1.4,1.6,2.4c0.4,1,0.6,2.3,0.6,3.9v10.9h-3.7V23.2c0-0.7-0.1-1.4-0.2-2
            c-0.1-0.6-0.4-1.1-0.7-1.6c-0.3-0.4-0.7-0.8-1.2-1.1c-0.5-0.3-1.1-0.4-1.8-0.4c-1,0-1.9,0.3-2.6,0.9c-0.7,0.6-1.2,1.3-1.5,2.2
            c-0.2,0.4-0.2,0.9-0.2,1.5v11.1h-3.7V7h3.7v10.7C122.4,16.9,123.1,16.3,123.9,15.9z M143.7,16.1c0.9-0.7,2-1.1,3.2-1.1
            c0.3,0,0.7,0,1,0.1l0.2,0.1v3.6l-0.3-0.1c-0.3-0.1-0.7-0.1-1.1-0.1c-1.1,0-2,0.4-2.7,1.1c-0.7,0.7-1.2,1.7-1.4,2.9
            c0,0.2-0.1,0.4-0.1,0.7c0,0.3,0,0.5,0,0.8v9.8h-3.8V21.2c0-1.1,0-2,0-2.9c0-0.9-0.1-1.8-0.1-2.6l0-0.3h3.4l0.1,2.8
            C142.4,17.3,143,16.6,143.7,16.1z M155.2,35.8c0.5-0.6,0.9-1.3,1.3-2.1c0.1-0.2,0.1-0.3,0.2-0.4c0-0.1,0.1-0.2,0.1-0.2
            c0-0.1-0.1-0.4-0.2-0.7l-6.7-16.9h4.1l0.1,0.2l3.9,10.6c0.2,0.6,0.4,1.2,0.6,1.9c0.1,0.4,0.2,0.7,0.3,1.1c0.1-0.3,0.2-0.7,0.3-1
            c0.2-0.7,0.4-1.3,0.6-2l3.6-10.7h4l-0.1,0.4l-4.9,12.8c-0.6,1.5-1.1,2.9-1.6,4.1c-0.5,1.2-1,2.2-1.5,3.1c-0.5,0.9-1,1.7-1.5,2.4
            c-0.5,0.7-1,1.2-1.6,1.7c-0.8,0.7-1.6,1.3-2.4,1.6c-0.7,0.3-1.3,0.5-1.7,0.6l-0.2,0l-1-3.2l0.3-0.1c0.4-0.1,0.8-0.3,1.3-0.6
            c0.5-0.2,1-0.6,1.4-0.9C154.2,36.8,154.7,36.4,155.2,35.8z"/>
        </g>
      </svg>
